<svg width="59" height="62" viewBox="0 0 59 62" fill="none" xmlns="http://www.w3.org/2000/svg">
<path d="M14.2222 8.11111H8.11111C6.49034 8.11111 4.93596 8.75496 3.7899 9.90102C2.64385 11.0471 2 12.6015 2 14.2222V50.8889C2 52.5097 2.64385 54.064 3.7899 55.2101C4.93596 56.3562 6.49034 57 8.11111 57H25.5186M44.7778 35.6111V47.8333H57M44.7778 26.4444V14.2222C44.7778 12.6015 44.1339 11.0471 42.9879 9.90102C41.8418 8.75496 40.2874 8.11111 38.6667 8.11111H32.5556" stroke="#030D42" stroke-width="3" stroke-linecap="round" stroke-linejoin="round"/>
<path d="M14.2223 26.4444H26.4445M14.2223 38.6667H23.389M14.2223 8.11111C14.2223 6.49034 14.8661 4.93596 16.0122 3.7899C17.1582 2.64385 18.7126 2 20.3334 2H26.4445C28.0653 2 29.6197 2.64385 30.7657 3.7899C31.9118 4.93596 32.5556 6.49034 32.5556 8.11111C32.5556 9.73188 31.9118 11.2863 30.7657 12.4323C29.6197 13.5784 28.0653 14.2222 26.4445 14.2222H20.3334C18.7126 14.2222 17.1582 13.5784 16.0122 12.4323C14.8661 11.2863 14.2223 9.73188 14.2223 8.11111ZM32.5556 47.8333C32.5556 51.0749 33.8433 54.1836 36.1354 56.4757C38.4275 58.7679 41.5363 60.0556 44.7778 60.0556C48.0194 60.0556 51.1281 58.7679 53.4203 56.4757C55.7124 54.1836 57.0001 51.0749 57.0001 47.8333C57.0001 44.5918 55.7124 41.483 53.4203 39.1909C51.1281 36.8988 48.0194 35.6111 44.7778 35.6111C41.5363 35.6111 38.4275 36.8988 36.1354 39.1909C33.8433 41.483 32.5556 44.5918 32.5556 47.8333Z" stroke="#030D42" stroke-width="3" stroke-linecap="round" stroke-linejoin="round"/>
</svg>
