<svg width="50" height="51" viewBox="0 0 50 51" fill="none" xmlns="http://www.w3.org/2000/svg">
<path d="M2.52547 0L0 2.52547L4.4489 10.2192L7.33404 9.79604L24.945 27.4089L23.4428 28.8515C22.6734 29.6208 22.6734 30.7864 23.4428 31.5558L24.2237 32.3386C24.9931 33.108 26.1702 33.108 26.7472 32.3386L29.0323 34.6218C28.8399 35.7758 29.0323 37.1472 29.994 38.1089L40.3921 48.4474C42.5078 50.5632 45.97 50.5632 48.0858 48.4474C50.5862 46.1393 50.5632 42.6886 48.4474 40.5729L38.1089 30.1729C37.1472 29.2112 35.7758 28.8265 34.6218 29.2112L32.0963 26.928C32.6733 26.1587 32.6733 24.9815 32.0963 24.4026L31.375 23.6832C31.2002 23.5009 30.9902 23.3558 30.7579 23.2567C30.5255 23.1575 30.2755 23.1065 30.0228 23.1065C29.7702 23.1065 29.5202 23.1575 29.2878 23.2567C29.0554 23.3558 28.8455 23.5009 28.6707 23.6832L27.4089 24.945L9.79796 7.33404L10.2173 4.4489L2.52547 0ZM40.0324 0.0596264C36.2374 -0.255816 31.2057 2.26003 28.8515 4.44697C25.9548 7.34366 26.4279 11.1309 28.7303 14.7873L24.6449 18.8746L27.5301 22.1195C29.0688 20.7731 31.3385 20.7731 32.8772 22.1195L33.66 22.9004L33.8409 23.0812L35.5239 21.3982C39.0014 23.4428 42.6213 23.7371 45.3814 20.9769C48.0742 18.4765 50.994 12.31 49.6476 8.65544L44.2389 14.2449C43.4695 15.0143 42.3039 15.0143 41.5346 14.2449L35.9432 8.65544C35.7608 8.48059 35.6157 8.27066 35.5166 8.03829C35.4175 7.80592 35.3664 7.5559 35.3664 7.30327C35.3664 7.05064 35.4175 6.80062 35.5166 6.56825C35.6157 6.33588 35.7608 6.12595 35.9432 5.9511L41.5365 0.361605C41.0556 0.192343 40.5748 0.105789 40.0324 0.0596264ZM18.8746 24.0429L11.9003 31.0153C11.1508 30.8488 10.3849 30.7682 9.61716 30.7749C4.23155 30.7749 0 35.0065 0 40.3921C0 45.7777 4.23155 50.0092 9.61716 50.0092C15.0028 50.0092 19.2343 45.7777 19.2343 40.3921C19.2343 39.4053 19.0785 38.4571 18.8131 37.5665L22.9004 33.4792L22.3003 32.6983C20.7615 31.1596 20.7731 28.8284 22.1195 27.2877L18.8746 24.0429ZM33.7812 32.8195C34.0217 32.8195 34.2486 32.8657 34.441 33.0599L45.8027 44.4197C46.1874 44.8044 46.1874 45.4161 45.8027 45.8007C45.418 46.1854 44.8025 46.1854 44.4178 45.8007L33.0599 34.441C32.6753 34.0563 32.6753 33.4446 33.0599 33.0599C33.2523 32.8676 33.5408 32.8195 33.7812 32.8195ZM10.9405 35.4008L14.6065 39.0687L13.2832 44.0562L8.29576 45.3795L4.62778 41.7115L5.9511 36.7241L10.9405 35.4008Z" fill="#030D42"/>
</svg>
