<svg width="112" height="94" viewBox="0 0 112 94" fill="none" xmlns="http://www.w3.org/2000/svg">
<path d="M66.109 65.5263H45.0261V56.3544H66.109V65.5263Z" fill="#ECB79D"/>
<g style="mix-blend-mode:multiply">
<path d="M50.9197 63.3946C54.2999 63.305 57.6152 62.481 60.2153 61.227C62.3388 60.2238 64.0289 59.0236 65.3073 57.6084C65.5673 57.3397 65.849 57.0172 66.109 56.6948V56.3544H45.0261V63.2154C46.9762 63.3767 48.9696 63.4483 50.9197 63.3946Z" fill="#D1D2D3"/>
</g>
<path d="M55.5784 4.90578C55.5639 4.90578 55.5567 4.90578 55.5567 4.90578C42.0792 5.21031 31.8086 9.79626 31.8519 25.5605C31.8953 34.9294 32.9137 37.6882 36.2072 48.3469C38.504 55.7274 50.6381 59.6327 55.2534 59.8835C55.3545 59.8835 55.4556 59.8775 55.5567 59.8655C55.6723 59.8775 55.7734 59.8835 55.8601 59.8835C60.497 59.6327 72.6311 55.7274 74.9062 48.3469C78.1998 37.6882 79.2398 34.9294 79.2615 25.5605C79.3265 9.79626 69.0342 5.21031 55.5784 4.90578Z" fill="#ECB79D"/>
<path d="M76.683 32.0632L75.2095 41.3784C80.9949 43.4744 81.9049 32.5111 81.9049 32.5111C80.5615 29.7882 76.683 32.0632 76.683 32.0632Z" fill="#ECB79D"/>
<path d="M28.515 32.5111C28.515 32.5111 29.4251 43.4744 35.1888 41.3784L33.737 32.0632C33.737 32.0632 29.8585 29.7882 28.515 32.5111Z" fill="#ECB79D"/>
<path d="M66.2823 65.5263L94.7541 71.6529C94.7541 71.6529 104.461 72.8889 106.953 80.1082L111.2 93.1854H55.8384H55.3617H0L4.24692 80.1082C6.73874 72.8889 16.446 71.6529 16.446 71.6529L44.8311 65.5263H66.2823Z" fill="#ECB79D"/>
<path d="M0 93.1854L4.24692 80.1082C6.73874 72.8889 16.446 71.6529 16.446 71.6529L44.8311 65.5263H66.2823L94.7541 71.6529C94.7541 71.6529 104.461 72.8889 106.953 80.1082L111.2 93.1854" fill="#FEFEFE"/>
<path d="M57.4418 65.5263H55.6217H55.5784H53.7799L48.5579 72.3157L53.2165 76.6688H55.5784H55.6217H57.9835L62.6421 72.3157L57.4418 65.5263Z" fill="#D73D6C"/>
<g style="mix-blend-mode:multiply">
<path d="M58.2002 75.8268C55.145 73.1756 53.8449 69.1629 54.6466 65.5263H53.7799L48.5579 72.3157L53.2165 76.6688H57.9835L58.5469 76.1314C58.4313 76.0358 58.3157 75.9343 58.2002 75.8268Z" fill="#D73D6C"/>
</g>
<g style="mix-blend-mode:multiply">
<path d="M66.1307 60.9404L55.5134 65.5263L62.5121 74.2325L75.2095 67.9268L66.1307 60.9404Z" fill="#BBBDBF"/>
</g>
<path d="M66.1307 60.9404L55.5134 65.5263L62.6421 73.086L74.5162 67.3894L66.1307 60.9404Z" fill="#FEFEFE"/>
<g style="mix-blend-mode:multiply">
<path d="M44.9611 60.9404L55.5134 65.5263L48.5796 74.2325L35.8822 67.9268L44.9611 60.9404Z" fill="#BBBDBF"/>
</g>
<path d="M44.9611 60.9404L55.5784 65.5263L48.4496 73.086L36.5756 67.3894L44.9611 60.9404Z" fill="#FEFEFE"/>
<path d="M36.7272 67.2998L16.446 71.6529C16.446 71.6529 6.73874 72.8889 4.24692 80.1082L0 93.1854H111.2L106.953 80.1082C104.461 72.8889 94.7541 71.6529 94.7541 71.6529L73.5195 66.6191L55.5134 92.5405L36.7272 67.2998Z" fill="#063954"/>
<path d="M53.1299 76.6688L50.5947 85.9302L55.5134 92.5405L60.107 85.9302L57.8969 76.6688H53.1299Z" fill="#D73D6C"/>
<path d="M36.7272 67.2998L27.1066 69.3599L32.5236 71.0976L29.1868 74.2325L48.5579 93.1854H56.0767L36.7272 67.2998Z" fill="#02263D"/>
<path d="M73.5195 66.6191L84.0934 69.127L78.6764 71.0975L82.0133 74.2325L62.6421 93.1854H55.1234L73.5195 66.6191Z" fill="#02263D"/>
<path d="M34.0621 33.4247L35.2538 45.2478C28.9918 31.3467 32.6103 13.1462 32.6103 13.1462C34.6037 6.42846 36.4455 5.29989 39.6524 3.90261C42.8809 2.50532 41.6458 2.75612 46.7161 1.75294C51.7648 0.731849 46.7162 1.75294 53.5632 0.355654C60.3886 -1.04163 66.109 2.12913 66.109 2.12913C70.7676 4.40419 73.6928 5.55068 73.6928 5.55068C83.9634 12.143 79.2614 30.3793 79.2614 30.3793C79.2614 35.1981 75.4912 46.4839 75.4912 46.4839L76.8996 31.1675C76.8996 10.0291 63.8555 11.9101 63.8555 11.9101C56.9868 13.0208 48.5579 11.8743 48.5579 11.8743C48.5579 11.8743 32.9137 7.91531 34.0621 33.156" fill="#842901"/>
<path d="M34.8855 41.6471C34.8855 41.6471 36.3805 51.0878 47.7779 55.2259C47.7779 55.2259 50.5081 56.6231 55.1233 56.3544V59.8835C55.1233 59.8835 49.728 59.9551 41.9709 55.4767C41.9709 55.4767 34.0621 51.5356 34.8855 41.6471Z" fill="#842901"/>
<path d="M76.1629 41.6471C76.1629 41.6471 74.6029 51.0878 62.5988 55.2259C62.5988 55.2259 59.717 56.6231 54.8633 56.3544V59.8835C54.8633 59.8835 60.562 59.9551 68.7092 55.4767C68.7092 55.4767 77.0297 51.5356 76.1629 41.6471Z" fill="#842901"/>
<path d="M34.0621 42.2204C34.0621 42.2204 39.219 51.7147 45.6978 50.7653C45.6978 50.7653 51.4614 47.7379 55.1233 49.4397C55.1233 49.4397 60.6487 47.7379 65.0256 50.7832C65.0256 50.7832 71.266 49.8517 75.8163 42.9011C75.8163 42.9011 74.5162 56.3544 55.5134 57.5009C55.5134 57.5009 37.5073 57.5009 34.0621 42.2204Z" fill="#842901"/>
<path d="M55.6434 53.4882C59.5003 53.2016 61.7104 51.7327 61.7104 51.7327C57.7018 50.2458 55.9467 50.9086 55.5567 51.1057C55.1667 50.9086 53.4116 50.2458 49.403 51.7327C49.403 51.7327 51.6348 53.2016 55.47 53.4882V53.5061C55.4989 53.5061 55.5278 53.5061 55.5567 53.5061C55.5856 53.5061 55.6145 53.5061 55.6434 53.5061V53.4882Z" fill="#ECB79D"/>
<path d="M35.3838 12.6267C35.4488 12.8954 35.2538 13.0566 35.5571 13.182C35.8822 12.0892 35.9905 11.0144 36.5756 9.99332C37.3989 10.4412 39.2407 13.0208 39.089 10.3874C39.9558 10.3158 40.9091 11.104 41.5809 10.9248C42.6209 10.6561 42.7076 9.3305 43.4226 8.61395C45.0477 9.5813 45.2644 10.3516 46.8678 9.59921C47.4529 9.3305 47.2579 8.4169 48.0162 8.23776C48.948 8.0407 49.3813 8.91849 50.0964 8.99014C50.6597 9.04388 52.7832 8.81101 53.2599 8.57812C54.0833 8.16611 54.7333 5.94478 56.0551 7.66452C57.9185 6.51803 58.2435 9.04388 59.9553 9.1872C59.9553 8.95432 59.9986 8.70352 60.0203 8.47064C61.082 9.09763 61.277 8.21985 62.0354 8.2915C63.4438 8.39898 63.7255 8.99014 64.8523 9.36633C65.8057 9.68878 68.5142 10.3158 69.5976 10.1366C69.6264 10.0172 69.6481 9.89778 69.6625 9.77835C71.071 10.8532 72.1544 12.3759 73.8011 13.2357C73.9311 13.1103 73.9095 12.9491 73.9961 12.8775C74.9279 13.9165 75.2529 15.2063 76.7263 15.8332C76.8346 13.3611 72.6961 10.3516 71.2443 8.79309C71.3527 8.97223 71.4177 9.1872 71.5477 9.38425C70.0526 8.14819 68.0808 7.01961 66.0007 6.17766C66.0873 6.42845 66.0657 6.80465 66.1523 7.07335C65.5456 5.89104 60.9737 4.83412 59.5653 4.47584C59.5869 4.76246 59.4569 5.12074 59.4786 5.40737C59.4136 5.35362 58.2652 4.72664 58.1352 4.78038C58.5686 4.56541 56.3584 5.49694 57.2251 5.40737C57.2251 5.40737 56.6834 5.89104 56.3151 5.94478C55.9251 5.99852 54.7116 5.15657 54.2783 5.04909C54.2566 5.28197 54.2133 5.53276 54.1916 5.76564C53.8883 5.56859 53.0432 5.38945 52.6748 5.04909C52.6965 5.33571 52.5665 5.67608 52.5882 5.9627C51.9815 5.44319 51.1148 4.83412 50.118 4.6729C50.2264 5.10283 50.0964 5.46111 50.3564 5.92687C49.8797 5.15657 49.1863 4.79829 48.4929 5.40737C47.5612 4.65498 45.5244 3.45475 45.2861 5.1924C45.0044 5.21031 44.8744 5.03117 44.6144 5.04909C43.7476 5.99852 42.6426 5.3178 41.6242 5.04909C41.7542 6.07018 41.6242 7.37789 40.1941 6.94796C40.1074 7.18084 40.0424 7.43164 39.9558 7.68243C39.8257 7.61078 39.4791 7.39581 39.3274 7.37789C38.5473 8.00488 37.1823 7.98697 36.1205 8.48856C36.1639 9.97541 35.6222 11.2473 35.6222 12.8237" fill="#9C350B"/>
</svg>
