<svg width="111" height="93" viewBox="0 0 111 93" fill="none" xmlns="http://www.w3.org/2000/svg">
<path d="M69.2615 74.9016H41.942V56.0407H69.2615V74.9016Z" fill="#ECB79D"/>
<path d="M41.9107 65.9535L70.06 56.7481L41.8951 52.9815L41.9107 65.9535Z" fill="#ECB79D"/>
<path d="M20.6501 32.4762C20.6501 46.8538 36.0554 58.5397 55.2025 58.8612V11.2818C36.3842 11.64 20.6501 18.3006 20.6501 32.4762Z" fill="#ECB79D"/>
<path d="M56.7994 11.2633C56.2671 11.2633 55.7348 11.2694 55.2025 11.2817V58.8611C55.4687 58.8611 55.7348 58.8703 56.001 58.8703C75.5238 58.8703 91.3519 47.0558 91.3519 32.4761C91.3519 17.8963 76.3223 11.2633 56.7994 11.2633Z" fill="#ECB79D"/>
<path d="M76.8076 24.2353C76.8076 24.2353 64.3612 36.2611 41.4567 35.076C41.4567 35.076 49.0968 33.6612 49.0968 31.3093C49.0968 31.3093 43.4763 33.6612 37.8402 34.3686C37.8402 34.3686 41.8638 31.3093 41.0653 29.8945C41.0653 29.8945 28.2119 31.539 27.8048 35.076L24.9867 39.0815L15.3584 32.4852C15.3584 32.4852 9.86319 10.8499 38.3725 5.89807C66.8975 0.95546 79.6883 12.3657 79.6883 12.3657C79.6883 12.3657 89.3323 15.2045 93.3089 31.3828C93.3089 31.3828 86.436 34.1389 87.2501 37.6667C87.2501 37.6667 78.0131 32.2464 76.8076 24.2353Z" fill="#ECB79D"/>
<path d="M87.7824 34.1297C87.0152 37.1798 88.4869 39.8165 91.0388 40.037C93.6064 40.2575 96.2992 37.9699 97.0506 34.929C97.8178 31.8881 96.3461 29.2422 93.7942 29.0218C91.2267 28.8013 88.5339 31.0888 87.7824 34.1297Z" fill="#ECB79D"/>
<path d="M23.0454 33.8817C23.5464 36.8858 22.0434 39.4306 19.6951 39.5592C17.3467 39.697 15.0453 37.3727 14.5443 34.3686C14.059 31.3644 15.5619 28.8196 17.9103 28.6818C20.243 28.5532 22.5601 30.8775 23.0454 33.8817Z" fill="#ECB79D"/>
<path d="M32.2041 81.5437V68.4247C28.9007 69.0678 24.4544 70.1794 19.9299 72.0444L17.4406 81.5437H32.2041Z" fill="#D57276"/>
<path d="M95.532 81.5438L91.3363 71.9802C87.845 70.2989 83.7901 68.8933 79.0621 67.9838V81.5438H95.532Z" fill="#D57276"/>
<path d="M28.1179 84.3643H23.2959C21.699 84.3643 20.4152 85.1176 20.4152 86.0547V86.3395C20.4152 87.2766 21.699 88.0391 23.2959 88.0391H28.1179C29.7148 88.0391 31.0142 87.2766 31.0142 86.3395V86.0547C31.0142 85.1176 29.7148 84.3643 28.1179 84.3643Z" fill="#D73D6C"/>
<path d="M89.7863 84.0794H84.9643C83.3674 84.0794 82.068 84.8328 82.068 85.7698V86.0546C82.068 86.9917 83.3674 87.7542 84.9643 87.7542H89.7863C91.3832 87.7542 92.667 86.9917 92.667 86.0546V85.7698C92.667 84.8328 91.3832 84.0794 89.7863 84.0794Z" fill="#D73D6C"/>
<path d="M17.3467 82.8208H55.2025H95.3755V93H111C109.873 89.7662 105.098 78.6407 91.3362 71.9802V81.5438H79.0621V67.9838C77.7887 67.7388 76.4736 67.5306 75.1168 67.3591L72.5805 65.6871C68.0403 67.0192 62.3103 67.8184 56.0636 67.8184C49.5351 67.8184 43.5546 66.9457 38.9204 65.5033L36.1181 67.3591L36.666 67.7082C35.7267 67.8185 34.1611 68.0389 32.2041 68.4248V81.5438H19.9299V72.0445C11.2566 75.609 2.22313 81.9297 0 93H17.3467V82.8208Z" fill="#063954"/>
<path fill-rule="evenodd" clip-rule="evenodd" d="M55.2025 82.8207V92.9999H17.3467V82.8207H55.2025ZM30.9986 86.3393V86.0545C30.9986 85.1175 29.6991 84.3641 28.1023 84.3641H23.2959C21.699 84.3641 20.3996 85.1175 20.3996 86.0545V86.3393C20.3996 87.2764 21.699 88.0389 23.2959 88.0389H28.1023C29.6991 88.0389 30.9986 87.2764 30.9986 86.3393Z" fill="#063954"/>
<path fill-rule="evenodd" clip-rule="evenodd" d="M95.3754 82.8207V92.9999H55.2025V82.8207H95.3754ZM92.667 86.0545V85.7697C92.667 84.8327 91.3675 84.0793 89.7706 84.0793H84.9643C83.3674 84.0793 82.068 84.8327 82.068 85.7697V86.0545C82.068 86.9916 83.3674 87.7541 84.9643 87.7541H89.7706C91.3675 87.7541 92.667 86.9916 92.667 86.0545Z" fill="#063954"/>
<path d="M15.8594 25.696H91.0075C91.0075 25.696 97.7708 0 54.2475 0C10.7243 0 15.8594 25.696 15.8594 25.696Z" fill="#D57276"/>
<path d="M92.1504 25.0989C91.8685 24.9059 91.4458 24.7957 91.0075 24.7957H15.8594C15.3584 24.7957 14.8887 24.9427 14.6069 25.1907C14.3095 25.4296 14.2468 25.742 14.4347 26.0176C14.513 26.137 16.4073 28.9942 22.5444 31.8238C26.114 33.459 30.3724 34.7636 35.2257 35.6915C41.2375 36.8399 48.1887 37.4278 55.8601 37.4278C63.5628 37.4278 70.2635 36.8399 75.79 35.6823C80.2832 34.7452 84.0093 33.4223 86.89 31.7503C91.8686 28.8563 92.5104 25.9257 92.5261 25.8063C92.5731 25.549 92.4478 25.2918 92.1504 25.0989Z" fill="#063954"/>
<path d="M51.586 34.0562C45.1984 34.0562 38.9048 32.7609 34.6933 31.6584C29.9809 30.4182 26.8654 29.1779 26.7402 29.1228C26.2392 28.9207 26.1139 28.5256 26.4427 28.2317C26.7871 27.9377 27.476 27.8642 27.977 28.0663C28.1179 28.1214 40.3138 32.9538 52.2592 32.77C52.8698 32.7609 53.3708 33.0365 53.3864 33.3948C53.4021 33.7439 52.9168 34.0378 52.3218 34.047C52.0818 34.0532 51.8365 34.0562 51.586 34.0562Z" fill="#57595B"/>
<path d="M59.9619 18.9528L60.9952 17.9055C61.2144 17.6942 61.6841 17.6207 62.0598 17.7401L64.9875 18.7415C64.9875 18.0065 64.3456 17.2991 63.187 16.9041C62.2946 16.6009 61.2614 16.5458 60.3377 16.7112C60.1498 16.6652 59.9776 16.5917 59.8367 16.4999L56.2202 14.295L61.5119 11.1898L63.6411 10.6845L64.5021 9.43507L63.234 8.69092L61.1048 9.1962L60.2437 10.4456L54.9834 13.5417L52.3532 11.9339C52.181 11.8329 52.0714 11.7226 52.0088 11.594C52.4941 10.6753 51.8522 9.64637 50.3649 9.14108C49.2064 8.74604 47.8443 8.7736 46.7484 9.13189L49.676 10.1333C50.0518 10.2619 50.177 10.5375 49.9578 10.7488L48.9246 11.8053C48.7054 12.0166 48.2357 12.0901 47.8756 11.9707L44.948 10.9693C44.948 11.7043 45.5899 12.4117 46.7327 12.8067C47.6408 13.1099 48.6584 13.165 49.5821 12.9996C49.77 13.0456 49.9422 13.1191 50.0987 13.2109L52.7602 14.837L52.181 15.1861C51.6487 14.8738 50.7563 14.9013 50.1927 15.2321L43.6172 19.0906C43.0536 19.4213 43.0066 19.945 43.5389 20.2573L44.8071 20.9923C45.3237 21.3047 46.2161 21.2771 46.7797 20.9464L53.3552 17.0878C53.9188 16.7571 53.9657 16.2334 53.4334 15.9303V15.9211L53.997 15.5995L54.4824 15.8843L57.5666 17.7769C57.7388 17.8779 57.8484 17.9882 57.9267 18.1168C57.4413 19.0355 58.0676 20.0644 59.5549 20.5697C60.7134 20.9648 62.0911 20.9372 63.1714 20.5789L60.2437 19.5775C59.868 19.4489 59.7428 19.1733 59.9619 18.9528Z" fill="#464749"/>
<path d="M63.234 8.69092L64.5021 9.43507L63.6411 10.6845L61.5119 11.1898L56.2202 14.295L59.8367 16.4999C59.9776 16.5917 60.1498 16.6652 60.3377 16.7112C60.6821 16.6469 61.0265 16.6193 61.3866 16.6193C61.9972 16.6193 62.6234 16.7112 63.187 16.9041C64.3456 17.2991 64.9875 18.0065 64.9875 18.7415L62.0598 17.7401C61.9346 17.7034 61.7937 17.685 61.6684 17.685C61.4023 17.685 61.1361 17.7677 60.9952 17.9055L59.9619 18.9528C59.7428 19.1733 59.868 19.4489 60.2437 19.5775L63.1714 20.5789C62.6234 20.7626 61.9972 20.8545 61.371 20.8545C60.7447 20.8545 60.1341 20.7626 59.5549 20.5697C58.0676 20.0644 57.4413 19.0355 57.9267 18.1168C57.8484 17.9882 57.7388 17.8779 57.5666 17.7769L54.4824 15.8843L53.997 15.5995L53.4334 15.9211V15.9303C53.9657 16.2334 53.9188 16.7571 53.3552 17.0878L46.7797 20.9464C46.4822 21.1209 46.0908 21.2128 45.7151 21.2128C45.3707 21.2128 45.0419 21.1393 44.8071 20.9923L43.5389 20.2573C43.0066 19.945 43.0536 19.4213 43.6172 19.0906L50.1927 15.2321C50.4901 15.0575 50.8815 14.9656 51.2573 14.9656C51.6017 14.9656 51.9305 15.0391 52.181 15.1861L52.7602 14.837L50.0987 13.2109C49.9422 13.1191 49.77 13.0456 49.5821 12.9996C49.2533 13.0639 48.8932 13.0915 48.5488 13.0915C47.9226 13.0915 47.312 12.9996 46.7327 12.8067C45.5899 12.4117 44.948 11.7043 44.948 10.9693L47.8756 11.9707C47.9852 12.0074 48.1261 12.0258 48.2514 12.0258C48.5175 12.0258 48.7837 11.9431 48.9246 11.8053L49.9578 10.7488C50.177 10.5375 50.0518 10.2619 49.676 10.1333L46.7484 9.13189C47.312 8.94815 47.9226 8.85628 48.5645 8.85628C49.1751 8.85628 49.8013 8.94815 50.3649 9.14108C51.8522 9.64637 52.4941 10.6753 52.0088 11.594C52.0714 11.7226 52.181 11.8329 52.3532 11.9339L54.9834 13.5417L60.2437 10.4456L61.1048 9.1962L63.234 8.69092Z" fill="#F27D20"/>
</svg>
